<svg width="152" height="42" viewBox="0 0 152 42" fill="none" xmlns="http://www.w3.org/2000/svg">
<path d="M11.5043 20.3932C11.6151 20.5224 11.6759 20.6867 11.6759 20.8566C11.6759 21.0264 11.6151 21.1907 11.5043 21.3198C10.8185 22.0161 9.43121 23.2419 8.24783 23.1414C6.60174 23.0014 6.65716 20.8566 6.65716 20.8566C6.65716 20.8566 6.60174 18.7117 8.24783 18.5717C9.43121 18.4716 10.8185 19.697 11.5043 20.3932Z" fill="#FAB84B"/>
<path d="M8.22346 7.23652C7.41049 8.75134 9.46659 19.4698 11.1827 19.3015C12.8989 19.1331 14.9008 9.41295 13.694 7.74909C12.4873 6.08522 8.56225 6.60448 8.22346 7.23652Z" fill="#63B3ED"/>
<path d="M12.9978 20.3538C14.2517 21.8772 28.8997 15.003 28.2946 11.5432C27.6894 8.08339 18.2222 9.16335 17.1465 10.0749C15.2819 11.6599 11.7222 18.8027 12.9978 20.3538Z" fill="#63B3ED"/>
<path d="M8.22346 34.4849C7.41049 32.9697 9.46659 22.2515 11.1827 22.4199C12.8989 22.5883 14.9008 32.3084 13.694 33.9723C12.4873 35.6362 8.56225 35.1169 8.22346 34.4849Z" fill="#63B3ED"/>
<path d="M12.9981 21.3655C14.252 19.842 28.9 26.7163 28.2948 30.1761C27.6897 33.6359 18.2197 32.5563 17.1459 31.644C15.2822 30.061 11.7225 22.9166 12.9981 21.3655Z" fill="#63B3ED"/>
<path d="M46.3489 29.0326C46.1919 29.0329 46.0355 29.0131 45.8836 28.9736C45.6413 28.9083 45.4136 28.7983 45.2121 28.6491C44.9997 28.4923 44.8219 28.2937 44.6898 28.0655L41.6888 23.0313L40.7995 23.7803L40.4949 24.0078V27.0627C40.5024 27.3226 40.4551 27.5811 40.3562 27.8217C40.2574 28.0622 40.109 28.2795 39.9208 28.4595C39.6461 28.7381 39.294 28.9284 38.9098 29.0058C38.5256 29.0833 38.127 29.0444 37.7652 28.8941C37.4034 28.7438 37.0951 28.4891 36.88 28.1626C36.6648 27.8363 36.5527 27.4532 36.5581 27.0627V16.4307C36.5406 16.1237 36.4982 15.8186 36.4312 15.5184C36.3764 15.2942 36.3578 15.0627 36.3762 14.8327C36.3828 14.7613 36.4052 14.6922 36.4418 14.6305C36.4783 14.5688 36.5282 14.5158 36.5877 14.4756C36.8681 14.3367 37.183 14.2822 37.4939 14.3186H38.5302C38.7825 14.3136 39.0332 14.3601 39.2668 14.4549C39.5004 14.5499 39.7122 14.6913 39.889 14.8706C40.2707 15.2451 40.4897 15.7538 40.4991 16.2874V18.8704L45.0651 14.9728C45.2624 14.799 45.4935 14.6674 45.744 14.5862C45.9493 14.5215 46.1632 14.4885 46.3785 14.4882H46.4937C46.7482 14.5035 46.9974 14.5676 47.2276 14.6768C47.4657 14.7921 47.6781 14.9542 47.8518 15.1534C48.0255 15.3525 48.157 15.5845 48.2385 15.8355C48.3146 16.0789 48.3433 16.3346 48.3231 16.5887C48.3018 16.8402 48.2341 17.0855 48.1232 17.3124C48.0064 17.5473 47.8427 17.7559 47.6421 17.9255L44.6295 20.4905L48.0408 26.0377C48.1756 26.264 48.264 26.5146 48.3009 26.7751C48.3358 27.0278 48.3251 27.2847 48.2692 27.5336C48.2125 27.7762 48.1063 28.0046 47.9572 28.2046C47.7996 28.416 47.6002 28.5931 47.3714 28.7249L47.3608 28.7313C47.1401 28.8775 46.8893 28.9728 46.6269 29.0104C46.5349 29.0241 46.4419 29.0315 46.3489 29.0326Z" fill="#63B3ED"/>
<path d="M51.8521 29.0226C51.5921 29.0283 51.3336 28.9816 51.0922 28.8851C50.8508 28.7886 50.6316 28.6444 50.4477 28.4612C50.2638 28.278 50.1191 28.0596 50.0222 27.8192C49.9253 27.5787 49.8784 27.3212 49.8842 27.0622V19.9539C49.8787 19.6961 49.9261 19.44 50.0233 19.2011C50.1206 18.9622 50.2658 18.7455 50.4499 18.5644C50.6307 18.3771 50.8489 18.2295 51.0904 18.1312C51.3319 18.0329 51.5913 17.986 51.8521 17.9935C52.1142 17.9933 52.3736 18.0463 52.6145 18.1494C52.8502 18.2455 53.0643 18.3874 53.2444 18.5668C53.4245 18.7462 53.5669 18.9596 53.6634 19.1943C53.7669 19.4343 53.8201 19.6927 53.8199 19.9539V27.0622C53.8274 27.3221 53.7801 27.5806 53.6813 27.8212C53.5824 28.0617 53.434 28.279 53.2458 28.459C53.0641 28.6423 52.8468 28.7869 52.6071 28.8838C52.3675 28.9807 52.1106 29.0279 51.8521 29.0226ZM51.8521 16.4144C51.5928 16.423 51.3345 16.3794 51.0925 16.2864C50.8505 16.1934 50.6298 16.0528 50.4436 15.873C50.0844 15.5082 49.8831 15.0176 49.8831 14.5067C49.8831 13.9957 50.0844 13.5051 50.4436 13.1404C50.8233 12.7855 51.3245 12.5879 51.8452 12.5879C52.3659 12.5879 52.8671 12.7855 53.2468 13.1404C53.4276 13.319 53.5711 13.5316 53.669 13.7657C53.7669 13.9998 53.8173 14.251 53.8173 14.5046C53.8173 14.7582 53.7669 15.0094 53.669 15.2435C53.5711 15.4776 53.4276 15.6901 53.2468 15.8688C53.0621 16.0471 52.8437 16.1871 52.6043 16.2808C52.3649 16.3745 52.1092 16.4199 51.8521 16.4144Z" fill="#63B3ED"/>
<path d="M64.214 29.0238C63.9565 29.0248 63.7019 28.972 63.4662 28.8689C62.9985 28.6694 62.6263 28.2982 62.4255 27.8323C62.3223 27.5977 62.269 27.344 62.2701 27.0876L62.2213 23.506C62.2241 23.08 62.0699 22.6677 61.7881 22.3473C61.6499 22.1794 61.4752 22.0449 61.2777 21.9536C61.0796 21.8624 60.8638 21.8169 60.6458 21.8206C60.4262 21.8177 60.2081 21.8625 60.0073 21.9518C59.8065 22.0411 59.6273 22.1728 59.4831 22.3378C59.1824 22.6545 59.016 23.0745 59.0188 23.5102L58.9711 27.0845C58.9727 27.3422 58.9195 27.5974 58.8157 27.8334C58.6155 28.2997 58.2427 28.6713 57.775 28.871C57.5393 28.973 57.2846 29.0256 57.0272 29.0256C56.7704 29.0256 56.5158 28.973 56.28 28.871C55.8123 28.6711 55.4396 28.2995 55.2394 27.8334C55.1358 27.5987 55.0828 27.345 55.0839 27.0887V19.2356C55.0709 18.9088 55.1685 18.5871 55.361 18.3222C55.4498 18.2109 55.5649 18.1229 55.6953 18.066C55.8262 18.009 55.9693 17.9849 56.1119 17.9957C56.3948 18.0047 56.6672 18.1065 56.8869 18.2854C57.121 18.4437 57.3079 18.6621 57.4283 18.9174L57.5742 19.2692L57.881 19.0417C58.3525 18.694 58.8801 18.4292 59.4415 18.259C59.979 18.0898 60.5382 18.0011 61.1018 17.9957C61.8141 17.9867 62.5203 18.133 63.1699 18.4244C63.7752 18.7017 64.3155 19.1021 64.7565 19.6C65.2058 20.1159 65.5553 20.7112 65.785 21.355C66.033 22.0468 66.1578 22.7766 66.1533 23.5113V27.0929C66.1539 27.3492 66.1012 27.6029 65.9975 27.8376C65.7966 28.3035 65.4239 28.6746 64.9562 28.8742C64.7215 28.9748 64.4691 29.0257 64.214 29.0238Z" fill="#63B3ED"/>
<path d="M77.2776 29.022C76.9947 29.0131 76.7223 28.9112 76.5038 28.7323C76.2691 28.5743 76.0822 28.3558 75.9623 28.1003L75.8175 27.7474L75.5097 27.975C75.0381 28.3228 74.51 28.5876 73.9486 28.7577C73.4116 28.927 72.8519 29.0158 72.2888 29.021C71.576 29.0302 70.8703 28.8838 70.2202 28.5923C69.6149 28.3153 69.0746 27.9148 68.6341 27.4166C68.1843 26.9009 67.8348 26.3056 67.6051 25.6617C67.1153 24.2656 67.1153 22.7451 67.6051 21.349C67.8353 20.7051 68.1843 20.1099 68.6341 19.5941C69.0746 19.0961 69.6149 18.6956 70.2202 18.4185C70.8703 18.127 71.576 17.9806 72.2888 17.9897C72.4308 17.994 72.5728 18.012 72.7115 18.0435C72.8902 18.0802 73.0666 18.1259 73.2402 18.1804C73.3922 18.2283 73.5381 18.2921 73.6762 18.3711C73.7495 18.4045 73.8132 18.4569 73.8598 18.5228L74.4246 18.39V16.2559C74.4235 15.9995 74.4767 15.7458 74.5799 15.5111C74.7807 15.0455 75.1535 14.6744 75.6206 14.4745C75.8564 14.3725 76.111 14.3198 76.3684 14.3198C76.6252 14.3198 76.8799 14.3725 77.1156 14.4745C77.5833 14.6746 77.9561 15.046 78.1563 15.5121C78.2601 15.7468 78.3128 16.0005 78.3117 16.2569V27.7843C78.325 28.1111 78.2273 28.4327 78.0349 28.6976C77.945 28.8095 77.829 28.8976 77.697 28.9542C77.565 29.0108 77.4207 29.0341 77.2776 29.022ZM72.7454 21.8178C72.5273 21.8142 72.3115 21.8597 72.1141 21.9508C71.916 22.0421 71.7418 22.1766 71.6031 22.3445C71.3241 22.6691 71.1704 23.0826 71.1704 23.5101C71.1704 23.9377 71.3241 24.3511 71.6031 24.6757C71.7413 24.8436 71.916 24.9783 72.1141 25.0694C72.3115 25.1607 72.5273 25.2061 72.7454 25.2024C72.9656 25.2053 73.1831 25.1606 73.3839 25.0713C73.5852 24.982 73.7639 24.8502 73.9087 24.6851C74.2066 24.3668 74.373 23.9477 74.373 23.5122C74.373 23.0768 74.2066 22.6576 73.9087 22.3392C73.7644 22.1734 73.5858 22.0407 73.385 21.9505C73.1842 21.8603 72.9656 21.8146 72.7454 21.8168V21.8178Z" fill="#63B3ED"/>
<path d="M84.867 29.0235C84.1292 29.0277 83.398 28.8807 82.7196 28.5915C81.3898 28.0279 80.3308 26.973 79.765 25.6483C79.4787 24.9709 79.3312 24.2433 79.3312 23.5084C79.3312 22.7734 79.4787 22.0458 79.765 21.3684C80.3308 20.0435 81.3898 18.9886 82.7196 18.4251C83.398 18.1361 84.1292 17.989 84.867 17.9933C85.6048 17.9889 86.3365 18.1244 87.0233 18.3925C87.6756 18.6469 88.2737 19.0218 88.7857 19.4975C89.2888 19.9699 89.6916 20.5375 89.9712 21.1671C90.263 21.829 90.4105 22.5449 90.4039 23.2676C90.4017 23.4409 90.3617 23.6117 90.2863 23.768C90.2086 23.9373 90.0943 24.0876 89.9523 24.2083C89.7925 24.3436 89.6123 24.4524 89.4181 24.5307C89.2212 24.6116 89.0098 24.6528 88.7968 24.6518H88.7851C88.5017 24.6624 88.2265 24.6676 87.9685 24.6676C87.8376 24.6676 87.7095 24.6676 87.5847 24.6676L85.2692 24.6192C84.8459 24.6108 84.3904 24.6075 83.9006 24.6075H83.4673L83.6227 25.011C83.7053 25.2537 83.8673 25.4619 84.0826 25.602C84.3217 25.731 84.5924 25.7919 84.8642 25.7779C85.0539 25.7798 85.2431 25.7561 85.4267 25.7073C85.5671 25.6684 85.7163 25.6241 85.8821 25.5725C86.0253 25.5272 86.1806 25.4851 86.3443 25.4461C86.5157 25.4092 86.6904 25.392 86.8657 25.3944C87.3217 25.3867 87.7644 25.5495 88.1061 25.8506C88.2709 25.9864 88.4029 26.1577 88.4911 26.3518C88.5799 26.5458 88.6226 26.7573 88.6165 26.9704C88.6154 27.2807 88.5127 27.5821 88.3236 27.8289C88.1377 28.095 87.8898 28.3119 87.6008 28.4609C87.1919 28.6667 86.7553 28.8115 86.3043 28.8907C85.83 28.9788 85.349 29.0232 84.867 29.0235ZM84.867 21.1229C84.599 21.1186 84.3355 21.1945 84.1109 21.3409C83.8923 21.4793 83.7331 21.6936 83.6637 21.9425L83.5578 22.3175H86.1379L86.0735 21.9667C86.0469 21.8342 85.992 21.7089 85.9121 21.5998C85.8322 21.4907 85.729 21.4002 85.6103 21.3346C85.3873 21.1966 85.1299 21.1229 84.867 21.1219V21.1229Z" fill="#63B3ED"/>
<path d="M93.4949 29.0249C93.2381 29.0259 92.9829 28.9731 92.7477 28.87C92.28 28.6703 91.9072 28.2992 91.707 27.8334C91.6032 27.5987 91.5505 27.345 91.5516 27.0887V19.2355C91.5383 18.9088 91.636 18.5871 91.8285 18.3223C91.9172 18.2108 92.0321 18.1228 92.163 18.0658C92.2939 18.0089 92.437 17.9848 92.5796 17.9957C92.8625 18.0046 93.1354 18.1064 93.3546 18.2854C93.5887 18.4438 93.7756 18.6621 93.896 18.9174L94.0491 19.2882L94.3603 19.0333C94.7486 18.7078 95.1858 18.4441 95.6557 18.2517C96.1128 18.0774 96.5987 17.9909 97.088 17.9968C97.458 17.9838 97.8275 18.0163 98.1892 18.0936C98.446 18.1677 98.694 18.2688 98.9292 18.3949C99.2482 18.5577 99.5189 18.8016 99.7131 19.1018C99.9166 19.3956 100.025 19.7443 100.025 20.1015C100.026 20.3413 99.9771 20.5788 99.8811 20.7988C99.6836 21.2452 99.3258 21.6019 98.8776 21.7985C98.6568 21.8941 98.4183 21.9429 98.1775 21.9417C97.98 21.9398 97.7836 21.9211 97.5895 21.8859C97.2744 21.8388 96.9565 21.8173 96.6381 21.8217C96.4284 21.8 96.217 21.8495 96.0395 21.9621C95.8615 22.0747 95.7272 22.2438 95.6579 22.4421C95.5453 22.7873 95.4914 23.1486 95.497 23.5113L95.4493 27.0855C95.4504 27.3433 95.3977 27.5984 95.294 27.8345C95.0931 28.3004 94.7203 28.6716 94.2521 28.8711C94.0136 28.9751 93.7557 29.0275 93.4949 29.0249Z" fill="#63B3ED"/>
<path d="M103.207 29.0231C102.947 29.0288 102.688 28.9821 102.447 28.8856C102.206 28.7891 101.987 28.6449 101.803 28.4617C101.619 28.2785 101.474 28.0601 101.377 27.8197C101.28 27.5792 101.233 27.3217 101.239 27.0627V16.4307C101.222 16.1237 101.179 15.8186 101.112 15.5184C101.057 15.2942 101.039 15.0627 101.057 14.8327C101.064 14.7613 101.086 14.6922 101.123 14.6305C101.159 14.5688 101.209 14.5158 101.269 14.4756C101.549 14.3367 101.864 14.2822 102.175 14.3186H106.756C107.531 14.3155 108.299 14.4707 109.012 14.7747C110.415 15.3636 111.532 16.4754 112.123 17.8728C112.425 18.5861 112.58 19.3524 112.58 20.1265C112.58 20.9007 112.425 21.667 112.123 22.3803C111.828 23.0638 111.404 23.6843 110.874 24.2079C110.336 24.7319 109.705 25.151 109.012 25.4436C108.299 25.7477 107.531 25.9029 106.756 25.8997H105.18V27.0585C105.187 27.3183 105.14 27.5769 105.041 27.8175C104.943 28.058 104.794 28.2753 104.606 28.4553C104.424 28.6401 104.206 28.7857 103.965 28.8834C103.725 28.981 103.467 29.0286 103.207 29.0231ZM105.175 22.0632L106.761 22.0032C107.234 21.996 107.69 21.8204 108.045 21.5081C108.223 21.35 108.364 21.1549 108.459 20.9365C108.553 20.718 108.598 20.4817 108.59 20.244C108.593 19.7452 108.407 19.2637 108.07 18.8946C107.909 18.7034 107.709 18.5482 107.483 18.4392C107.258 18.3303 107.011 18.2701 106.761 18.2626L105.175 18.2025V22.0632Z" fill="#FAB84B"/>
<path d="M123.057 29.1302C122.788 29.1234 122.53 29.0198 122.332 28.8384C122.093 28.6475 121.887 28.4203 121.719 28.1653L121.532 27.865L121.268 28.101C120.869 28.4675 120.393 28.7409 119.875 28.9016C119.367 29.0527 118.84 29.1293 118.309 29.1291C117.584 29.1357 116.865 28.9888 116.201 28.6983C115.568 28.42 114.998 28.0185 114.525 27.5174C114.047 27.0071 113.67 26.4113 113.415 25.7614C112.881 24.379 112.881 22.8481 113.415 21.4656C113.67 20.8158 114.047 20.22 114.525 19.7096C114.998 19.2085 115.568 18.807 116.201 18.5287C116.865 18.2383 117.584 18.0914 118.309 18.0979C118.867 18.1041 119.42 18.2079 119.943 18.4044C120.436 18.5709 120.894 18.825 121.296 19.1544L121.601 19.4178L121.765 19.0512C121.886 18.7968 122.073 18.5788 122.306 18.4192C122.521 18.2504 122.785 18.1564 123.059 18.1516C123.201 18.1408 123.345 18.1649 123.475 18.2219C123.606 18.2788 123.721 18.3668 123.81 18.4781C124.003 18.7431 124.1 19.0647 124.087 19.3915V27.8924C124.1 28.2192 124.003 28.5409 123.81 28.8057C123.721 28.917 123.605 29.0048 123.474 29.0613C123.343 29.1179 123.199 29.1415 123.057 29.1302ZM118.525 21.9259C118.307 21.9223 118.091 21.9678 117.893 22.059C117.696 22.1502 117.521 22.2848 117.383 22.4527C117.103 22.7772 116.95 23.1907 116.95 23.6183C116.95 24.0458 117.103 24.4593 117.383 24.7838C117.521 24.9518 117.696 25.0864 117.893 25.1776C118.091 25.2688 118.307 25.3142 118.525 25.3105C118.745 25.3135 118.963 25.2687 119.163 25.1794C119.364 25.0901 119.543 24.9583 119.688 24.7933C119.986 24.475 120.152 24.0558 120.152 23.6204C120.152 23.1849 119.986 22.7657 119.688 22.4474C119.543 22.2815 119.365 22.1489 119.164 22.0586C118.963 21.9684 118.745 21.9228 118.525 21.9249V21.9259Z" fill="#FAB84B"/>
<path d="M129.841 29.0249C129.296 29.0175 128.753 28.9439 128.226 28.8058C127.659 28.6672 127.111 28.4584 126.595 28.1843C126.133 27.9427 125.721 27.616 125.381 27.2215C125.089 26.8934 124.93 26.4701 124.932 26.0322C124.928 25.8259 124.966 25.6208 125.043 25.4292C125.12 25.2376 125.235 25.0633 125.381 24.9167C125.522 24.7657 125.695 24.6466 125.886 24.5672C126.077 24.4879 126.284 24.45 126.491 24.4563C126.821 24.4596 127.148 24.5257 127.453 24.6512C127.797 24.7881 128.133 24.9439 128.46 25.1178C128.772 25.2853 129.082 25.4476 129.381 25.6003C129.655 25.753 129.962 25.8385 130.277 25.85C130.428 25.8541 130.577 25.8078 130.699 25.7183C130.76 25.6789 130.81 25.6261 130.847 25.5642C130.884 25.5023 130.905 25.4329 130.911 25.3612C130.911 25.0789 130.63 24.9282 130.325 24.8092C130.06 24.7038 129.729 24.5827 129.339 24.4458C128.949 24.3088 128.537 24.1456 128.079 23.9486C127.648 23.7658 127.238 23.5384 126.856 23.2702C126.506 23.0255 126.199 22.7243 125.95 22.379C125.716 22.0511 125.596 21.6567 125.607 21.255C125.631 20.4621 125.966 19.7104 126.542 19.1619C126.924 18.8062 127.371 18.5256 127.858 18.335C128.507 18.0922 129.197 17.9777 129.89 17.9979C130.493 17.9961 131.095 18.0544 131.687 18.1717C132.203 18.2699 132.702 18.442 133.168 18.6826C133.546 18.8756 133.879 19.1468 134.144 19.4779C134.369 19.7659 134.488 20.1216 134.481 20.4861C134.489 20.7368 134.435 20.9857 134.324 21.2108C134.221 21.4062 134.082 21.5801 133.913 21.7227C133.754 21.8562 133.573 21.9608 133.377 22.0314C133.201 22.0977 133.014 22.1333 132.826 22.1367C132.571 22.139 132.318 22.0933 132.08 22.0019C131.838 21.9081 131.604 21.8005 131.375 21.6795C131.148 21.5584 130.952 21.4509 130.784 21.3498C130.594 21.2288 130.375 21.1604 130.15 21.1518C130.061 21.1432 129.972 21.1577 129.89 21.1936C129.809 21.2296 129.738 21.286 129.684 21.3572C129.621 21.4475 129.587 21.5547 129.586 21.6648C129.586 21.905 129.816 22.0345 130.033 22.1367C130.224 22.2273 130.462 22.3274 130.742 22.4337C131.022 22.5402 131.307 22.6445 131.619 22.7498C131.932 22.8551 132.179 22.95 132.394 23.0416C132.64 23.1487 132.881 23.2687 133.115 23.4008C133.408 23.5649 133.679 23.7672 133.919 24.0023C134.182 24.2602 134.403 24.556 134.576 24.8798C134.77 25.2662 134.861 25.6959 134.838 26.1273C134.816 26.5588 134.682 26.977 134.449 27.3416C134.167 27.7371 133.793 28.0596 133.36 28.2822C132.85 28.5453 132.305 28.7337 131.741 28.8416C131.116 28.9655 130.479 29.0269 129.841 29.0249Z" fill="#FAB84B"/>
<path d="M140.273 29.0249C139.728 29.0175 139.185 28.9439 138.658 28.8058C138.091 28.6671 137.543 28.4583 137.028 28.1843C136.565 27.9427 136.153 27.6159 135.813 27.2215C135.522 26.8934 135.362 26.4701 135.364 26.0322C135.36 25.8259 135.398 25.6209 135.475 25.4293C135.551 25.2377 135.666 25.0634 135.812 24.9167C135.953 24.7658 136.125 24.6467 136.317 24.5673C136.509 24.4879 136.715 24.4501 136.922 24.4563C137.252 24.4595 137.579 24.5257 137.885 24.6512C138.228 24.7881 138.564 24.9439 138.891 25.1178C139.203 25.2853 139.513 25.4476 139.812 25.6003C140.086 25.753 140.394 25.8385 140.708 25.85C140.86 25.8541 141.008 25.8078 141.13 25.7183C141.191 25.6789 141.241 25.6262 141.278 25.5643C141.315 25.5024 141.337 25.4329 141.342 25.3612C141.342 25.0789 141.061 24.9282 140.756 24.8092C140.491 24.7038 140.159 24.5827 139.77 24.4458C139.381 24.3088 138.969 24.1456 138.51 23.9486C138.08 23.7658 137.67 23.5384 137.287 23.2702C136.937 23.0255 136.631 22.7243 136.381 22.379C136.148 22.0509 136.028 21.6566 136.039 21.255C136.063 20.4621 136.398 19.7103 136.974 19.1619C137.356 18.8061 137.803 18.5256 138.291 18.335C138.939 18.0922 139.629 17.9777 140.322 17.9979C140.925 17.9961 141.528 18.0544 142.119 18.1717C142.635 18.2699 143.134 18.442 143.6 18.6826C143.978 18.8756 144.311 19.1468 144.577 19.4779C144.801 19.7659 144.92 20.1216 144.913 20.4861C144.921 20.7368 144.867 20.9856 144.756 21.2108C144.654 21.4062 144.515 21.58 144.346 21.7227C144.187 21.8562 144.006 21.9608 143.81 22.0314C143.634 22.0977 143.447 22.1333 143.259 22.1367C143.004 22.139 142.751 22.0933 142.513 22.0019C142.272 21.9081 142.037 21.8005 141.808 21.6795C141.585 21.5605 141.386 21.4499 141.217 21.3498C141.027 21.2285 140.808 21.1602 140.583 21.1518C140.494 21.1432 140.405 21.1577 140.323 21.1936C140.242 21.2296 140.171 21.286 140.117 21.3572C140.055 21.4475 140.02 21.5547 140.019 21.6648C140.019 21.905 140.25 22.0345 140.466 22.1367C140.656 22.2273 140.895 22.3274 141.175 22.4337C141.455 22.5402 141.741 22.6445 142.053 22.7498C142.365 22.8551 142.612 22.95 142.827 23.0416C143.073 23.1488 143.313 23.2687 143.547 23.4008C143.841 23.5649 144.111 23.7672 144.352 24.0023C144.614 24.2603 144.835 24.5561 145.008 24.8798C145.189 25.2207 145.28 25.6015 145.274 25.9869C145.287 26.4681 145.15 26.9416 144.882 27.3416C144.599 27.7371 144.225 28.0596 143.792 28.2822C143.282 28.5454 142.737 28.7338 142.173 28.8416C141.548 28.9654 140.911 29.0268 140.273 29.0249Z" fill="#FAB84B"/>
</svg>
