<?xml version="1.0" standalone="no"?>
<!DOCTYPE svg PUBLIC "-//W3C//DTD SVG 20010904//EN"
 "http://www.w3.org/TR/2001/REC-SVG-20010904/DTD/svg10.dtd">
<svg version="1.0" xmlns="http://www.w3.org/2000/svg"
 width="512.000000pt" height="512.000000pt" viewBox="0 0 512.000000 512.000000"
 preserveAspectRatio="xMidYMid meet">

<g transform="translate(0.000000,512.000000) scale(0.100000,-0.100000)"
fill="#000000" stroke="none">
<path d="M2308 5039 c-3 -8 -11 -44 -18 -81 l-13 -67 -38 42 -37 42 -88 0
c-80 0 -98 -4 -169 -35 -61 -27 -80 -40 -80 -55 0 -17 8 -19 63 -21 64 -3 144
-32 191 -71 l25 -20 -54 -13 c-178 -43 -369 -150 -533 -300 -53 -48 -55 -52
-61 -114 -6 -56 -11 -65 -34 -75 -22 -11 -28 -10 -41 8 -15 19 -20 16 -114
-91 -76 -86 -95 -114 -86 -124 17 -20 -25 -74 -58 -74 -19 0 -55 -30 -146
-123 -79 -80 -139 -131 -169 -146 -45 -21 -64 -50 -35 -52 49 -3 130 5 188 20
38 10 69 15 69 12 0 -3 -9 -35 -20 -71 -43 -141 -75 -325 -95 -552 l-6 -67
-51 31 c-27 17 -53 40 -58 52 -20 53 -43 208 -41 277 2 66 -1 79 -17 90 -16
12 -20 31 -25 111 -10 177 -73 254 -149 181 -15 -15 -28 -22 -28 -16 0 6 -12
25 -26 42 -57 68 -144 14 -144 -89 0 -33 -2 -35 -31 -19 -11 5 -28 7 -38 4
-35 -11 -44 -57 -39 -195 4 -121 4 -128 -13 -119 -10 5 -33 9 -52 9 -27 0 -41
-7 -61 -31 -14 -17 -26 -37 -26 -46 0 -30 32 -81 68 -110 47 -38 120 -165 143
-249 11 -41 40 -98 82 -162 114 -173 111 -165 112 -342 0 -143 2 -161 28 -235
43 -124 110 -251 216 -412 118 -179 159 -225 315 -356 296 -248 548 -528 750
-832 l46 -71 -15 -149 c-8 -83 -15 -158 -15 -167 0 -17 62 -18 1159 -18 638 0
1162 3 1164 8 9 14 -31 179 -65 269 -49 130 -119 242 -215 342 -68 73 -80 91
-76 113 5 29 -15 74 -46 102 -11 10 -23 37 -27 63 -9 63 -37 90 -109 106 -60
13 -60 14 -105 87 -25 40 -57 80 -70 89 -39 26 -139 17 -245 -24 -13 -5 -17
-5 -10 2 6 6 55 25 110 44 110 36 367 163 514 252 112 69 255 174 332 245 43
39 73 57 120 72 106 32 185 91 250 187 52 75 73 146 75 253 1 72 8 115 28 179
45 141 59 248 54 417 l-4 152 31 -24 c75 -57 233 -111 249 -85 4 6 -15 32 -42
60 -62 59 -94 122 -215 422 -160 395 -280 612 -452 818 -185 221 -443 398
-709 486 -329 110 -721 122 -1095 34 -46 -10 -86 -18 -87 -16 -2 2 23 39 56
83 33 43 60 84 60 91 0 16 -20 21 -116 29 -64 5 -82 3 -86 -7z m-481 -1274
c-12 -85 -15 -90 -45 -108 -18 -11 -35 -17 -37 -15 -3 3 6 31 19 64 28 70 69
155 73 151 1 -2 -3 -43 -10 -92z m-1295 -2 c21 -24 38 -88 38 -145 0 -34 4
-48 14 -48 9 0 15 21 20 68 8 78 27 115 59 110 37 -5 59 -66 64 -182 l6 -102
-32 -14 c-101 -42 -231 -245 -231 -362 0 -50 23 -26 36 39 16 77 54 153 107
210 52 57 114 103 139 103 17 0 18 -8 17 -83 -1 -46 1 -88 4 -94 11 -17 36
-175 30 -189 -3 -8 -14 -14 -24 -14 -33 0 -93 -36 -132 -79 -45 -50 -76 -108
-97 -186 l-17 -59 -54 54 c-60 61 -67 74 -99 175 -25 83 -93 195 -149 248 -49
46 -58 70 -37 102 21 31 66 33 107 4 16 -11 33 -18 37 -15 5 3 6 27 2 53 -18
114 -15 252 5 279 15 19 15 19 35 -4 11 -13 25 -42 30 -64 19 -68 33 -40 31
59 -2 67 2 100 14 122 18 36 53 41 77 14z m1265 -368 c-2 -157 -4 -185 -17
-185 -20 1 -89 34 -119 58 l-23 19 27 109 c15 60 32 117 37 126 8 16 72 56 90
58 4 0 6 -83 5 -185z m-145 -199 c16 -22 16 -24 -14 -46 l-31 -23 6 24 c4 13
7 34 7 47 0 28 10 28 32 -2z m405 -167 c75 -36 157 -122 205 -215 18 -34 34
-61 36 -59 2 2 38 -23 78 -56 119 -93 254 -149 364 -149 50 0 52 18 8 70 -39
45 -120 179 -143 233 l-16 39 69 -59 c122 -102 283 -184 447 -228 33 -9 66
-18 73 -21 8 -2 -13 -28 -53 -65 -36 -34 -65 -65 -65 -69 0 -5 21 0 48 10 100
37 100 37 59 -10 -30 -35 -75 -130 -62 -130 2 0 50 11 107 25 254 62 479 55
651 -20 30 -13 19 11 -30 66 l-48 52 75 -7 c154 -14 285 -32 283 -39 -2 -4 -3
-16 -3 -26 0 -29 -47 -79 -81 -86 -19 -4 -27 -11 -22 -16 13 -13 61 6 91 34
12 12 28 41 34 65 7 28 18 46 31 51 11 4 32 34 48 67 36 77 36 52 -1 -91 -29
-112 -30 -135 -9 -135 15 0 57 48 101 114 35 55 38 57 32 25 -4 -19 -15 -61
-25 -94 -40 -129 -13 -140 60 -26 28 44 56 91 62 105 7 14 16 23 20 20 5 -3 9
3 9 13 0 18 51 147 63 159 14 15 50 -84 55 -152 8 -129 -41 -247 -144 -344
-83 -77 -149 -103 -264 -104 -77 -1 -90 2 -140 30 -37 20 -66 47 -88 80 -36
53 -52 65 -52 39 0 -27 55 -99 99 -129 46 -32 47 -29 -22 -121 -159 -215 -410
-381 -718 -475 -57 -18 -114 -36 -127 -41 -32 -13 -17 -32 19 -24 45 10 35 -2
-29 -34 l-58 -29 -177 1 c-131 2 -178 5 -182 15 -3 8 -34 12 -109 12 -255 0
-539 84 -756 225 -222 143 -387 362 -440 585 -27 115 -26 120 13 82 58 -56 69
-41 38 49 -34 101 -61 233 -53 263 l8 29 38 -52 c41 -55 53 -61 37 -17 -24 61
-24 148 -1 216 105 313 333 456 557 349z m-1161 -20 l51 -32 12 -151 c24 -291
60 -473 130 -641 37 -91 88 -181 97 -172 3 3 -2 31 -10 63 -25 98 -56 305 -56
374 l1 65 18 -46 c27 -69 70 -126 160 -210 59 -57 81 -83 81 -102 0 -41 39
-156 82 -242 135 -273 434 -501 773 -590 39 -10 71 -19 73 -20 1 -1 -5 -16
-15 -33 -12 -22 -28 -33 -52 -37 -71 -13 -113 -37 -127 -71 -8 -18 -14 -41
-14 -49 0 -9 -13 -35 -29 -58 -42 -62 -81 -143 -107 -222 -20 -60 -23 -65 -23
-35 -2 140 89 500 126 500 12 0 13 -8 8 -41 -6 -33 -4 -40 6 -37 22 7 35 74
19 93 -25 30 -62 14 -87 -37 -54 -109 -102 -366 -106 -566 -2 -111 -3 -121
-17 -103 -8 11 -49 68 -90 126 -164 236 -430 519 -681 727 -137 114 -181 164
-294 333 -189 286 -266 497 -244 678 10 85 63 225 112 299 35 52 96 105 141
121 7 3 8 8 1 15 -16 18 -86 -20 -131 -71 -38 -43 -86 -128 -114 -202 l-12
-30 -14 27 c-11 21 -12 38 -3 84 31 166 106 280 206 311 58 18 73 16 129 -18z
m2461 -336 c23 -17 39 -33 36 -37 -18 -17 -47 0 -93 55 -57 69 -65 87 -17 42
17 -17 51 -44 74 -60z m-2827 41 c0 -8 -5 -12 -10 -9 -6 4 -8 11 -5 16 9 14
15 11 15 -7z m2949 -188 c26 -31 -20 -66 -87 -66 -50 0 -70 14 -56 37 24 40
118 59 143 29z m106 -5 c0 -7 -9 -20 -21 -27 -17 -12 -23 -12 -39 0 -17 12
-17 16 -5 30 16 20 65 18 65 -3z m-107 -1180 c7 -4 30 -36 52 -72 l38 -64
-101 -13 c-203 -25 -443 -103 -667 -218 -57 -29 -106 -52 -108 -50 -5 6 179
167 262 228 44 33 131 85 192 114 165 80 276 105 332 75z m-1066 -56 l45 -7 5
-96 c5 -87 16 -136 53 -224 6 -14 2 -18 -17 -18 -34 0 -65 -26 -73 -60 l-7
-31 -66 37 c-143 78 -198 135 -216 220 -9 41 21 79 70 88 19 4 42 10 49 12 11
5 14 -6 12 -50 -3 -80 15 -73 30 13 16 85 38 135 57 128 8 -3 34 -8 58 -12z
m168 -122 c0 -60 5 -148 10 -197 6 -49 8 -91 5 -94 -5 -6 -56 104 -81 176 -9
26 -19 86 -21 135 l-6 87 47 0 46 0 0 -107z m393 81 l46 -7 -39 -28 c-39 -29
-42 -29 -174 -29 -74 0 -141 -3 -150 -6 -42 -16 -5 -24 111 -24 l128 0 -55
-47 c-30 -26 -89 -80 -131 -121 -63 -60 -78 -70 -83 -56 -4 10 -10 82 -13 160
l-6 143 34 5 c32 6 89 9 230 14 31 1 77 -1 102 -4z m709 -84 c41 -12 53 -27
63 -83 4 -20 22 -56 41 -79 19 -24 34 -53 34 -65 0 -23 0 -23 -168 -23 -262 0
-495 -30 -769 -99 l-113 -29 0 31 c0 20 -10 41 -26 58 l-26 28 98 49 c329 164
705 256 866 212z m-1493 -201 c43 -38 192 -128 222 -136 10 -3 19 -9 19 -13 0
-4 -21 -59 -46 -122 -76 -190 -136 -377 -130 -404 7 -27 46 -34 63 -11 5 6 33
80 61 162 28 83 69 193 90 245 l39 95 33 -3 c19 -2 45 -12 58 -23 14 -10 39
-19 57 -19 32 0 34 -3 65 -77 48 -114 150 -404 150 -424 0 -5 -212 -9 -481 -9
l-481 0 6 48 c3 26 13 126 22 222 23 250 74 428 155 542 l22 31 18 -36 c10
-19 36 -50 58 -68z m345 -70 c8 -12 12 -28 9 -36 -4 -11 -9 -10 -20 7 -16 22
-43 26 -61 8 -8 -8 -12 -9 -12 -1 0 18 29 43 50 43 10 0 26 -10 34 -21z m1334
-64 c78 -72 131 -142 186 -245 49 -92 100 -237 111 -313 l7 -47 -361 0 c-419
0 -379 -16 -330 132 37 113 85 202 141 260 65 67 107 83 211 83 58 0 87 4 87
11 0 16 -34 24 -106 24 -165 0 -309 -158 -377 -415 l-24 -90 -231 -3 c-217 -2
-232 -1 -232 16 0 22 -94 295 -144 416 -20 50 -33 93 -29 97 9 8 181 48 333
78 171 34 324 49 517 50 l182 1 59 -55z m-1358 23 c0 -6 -25 -73 -55 -148 -30
-75 -77 -199 -103 -276 -34 -100 -52 -140 -65 -142 -10 -2 -17 3 -17 12 0 37
151 451 196 538 14 28 44 39 44 16z m218 0 c19 -19 14 -27 -15 -25 -19 1 -30
-5 -38 -20 -13 -26 -25 -20 -25 12 0 27 18 45 45 45 12 0 26 -5 33 -12z m-93
-77 c6 -10 3 -11 -13 -2 -26 14 -35 40 -20 59 11 12 14 10 19 -15 3 -16 9 -35
14 -42z m151 -118 c95 -237 150 -411 136 -425 -19 -19 -27 -3 -72 132 -23 69
-69 191 -101 271 -63 157 -69 182 -42 177 12 -2 37 -51 79 -155z"/>
<path d="M1940 2818 c-111 -54 -235 -224 -261 -360 -24 -118 10 -191 104 -226
146 -55 350 -53 447 4 59 34 73 64 78 162 10 211 -60 376 -180 426 -54 23
-134 20 -188 -6z m95 -32 c44 -32 6 -123 -72 -175 -112 -74 -200 -39 -154 62
40 91 168 155 226 113z m-155 -283 c1 -39 33 -107 61 -127 58 -40 142 9 155
93 4 22 12 41 18 41 18 0 97 -53 125 -83 28 -31 31 -85 7 -122 -35 -54 -165
-82 -303 -65 -176 22 -227 57 -227 155 0 65 16 87 88 114 68 27 76 26 76 -6z"/>
<path d="M2820 2129 c-145 -55 -166 -57 -296 -23 -60 15 -127 27 -150 27 -100
0 -194 -106 -194 -218 0 -48 44 -130 97 -180 60 -58 166 -111 263 -131 179
-38 401 26 544 157 81 74 116 141 116 220 0 76 -37 125 -127 169 -66 31 -130
26 -253 -21z m226 -10 c27 -17 68 -49 92 -72 34 -33 42 -48 42 -77 0 -126
-178 -284 -380 -337 -79 -21 -217 -23 -285 -4 -168 47 -305 167 -305 268 0 40
42 124 85 172 35 38 41 41 89 41 28 0 80 -9 116 -20 36 -11 92 -23 125 -26 62
-7 62 -6 260 67 71 26 104 24 161 -12z"/>
</g>
</svg>
